<?xml version="1.0" encoding="utf-8"?>
<!-- Svg Vector Icons : http://www.onlinewebfonts.com/icon -->
<!DOCTYPE svg PUBLIC "-//W3C//DTD SVG 1.1//EN" "http://www.w3.org/Graphics/SVG/1.1/DTD/svg11.dtd">
<svg version="1.1" xmlns="http://www.w3.org/2000/svg" xmlns:xlink="http://www.w3.org/1999/xlink" x="0px" y="0px" viewBox="0 0 256 256" enable-background="new 0 0 256 256" xml:space="preserve">
<metadata> Svg Vector Icons : http://www.onlinewebfonts.com/icon </metadata>
<g> <path fill="#f5e44d" d="M63.4,111c0,46.7,37.9,84.6,84.6,84.6c46.7,0,84.6-37.9,84.6-84.6c0-46.7-37.9-84.6-84.6-84.6 C101.2,26.4,63.4,64.3,63.4,111z"/> <path fill="#671116" d="M147.9,197.5c-47.7,0-86.5-38.8-86.5-86.5c0-47.7,38.8-86.5,86.5-86.5c47.7,0,86.5,38.8,86.5,86.5 C234.4,158.7,195.6,197.5,147.9,197.5z M147.9,28.3c-45.6,0-82.6,37.1-82.6,82.6c0,45.6,37.1,82.6,82.6,82.6 c45.6,0,82.6-37.1,82.6-82.6C230.6,65.4,193.5,28.3,147.9,28.3L147.9,28.3z"/> <path fill="#681116" d="M51.1,184.5c1,1.4,0.5,3.5-1.1,4.8l-16,12.3c-1.7,1.3-3.9,1.2-4.9-0.1c-1-1.4-0.5-3.5,1.1-4.8l16-12.3 C47.8,183.1,50,183.1,51.1,184.5z M54.7,204.6c1,1.4,0.5,3.5-1.1,4.8l-16,12.3c-1.7,1.3-3.9,1.2-4.9-0.1c-1-1.4-0.5-3.5,1.1-4.8 l16-12.3C51.5,203.1,53.7,203.2,54.7,204.6z M32.6,175.7c1,1.4,0.5,3.5-1.1,4.8l-16,12.3c-1.7,1.3-3.9,1.2-4.9-0.1 c-1-1.4-0.5-3.5,1.1-4.8l16-12.3C32,172.3,33,176.2,32.6,175.7z"/> <path fill="#bcd1e4" d="M83.5,106.3c0,0-23.1-14.1-64.8,21.3l40.2,17.7L83.5,106.3z"/> <path fill="#681116" d="M59.6,147.7l-44.5-19.6l2.3-2c23.9-20.2,41.9-24.5,52.8-24.5c9.1,0,14,2.9,14.2,3l1.7,1L59.6,147.7 L59.6,147.7z M22.3,127.1l35.8,15.8l22.6-35.7c-2-0.7-5.5-1.7-10.4-1.7C60.3,105.5,44.1,109.3,22.3,127.1z"/> <path fill="#bcd1e4" d="M133.1,171.1c0,0,7.6,26-37.3,57.1l-6.7-43.4L133.1,171.1z"/> <path fill="#681116" d="M94.4,231.5L87,183.4l47.5-14.7l0.5,1.9c0.3,1.1,7.5,27.7-38.1,59.2L94.4,231.5L94.4,231.5z M91.3,186.1 l6,38.7c33.8-24.4,35-45,34.4-51.2L91.3,186.1z"/> <path fill="#bcd1e4" d="M143.5,163.1c37.1-28.5,56.1-66,42.4-83.8c-13.7-17.8-54.9-9.2-92,19.2c-24.2,18.5-40.6,40.9-45.4,59.2l0,0 c-0.1,0.1-0.1,0.2-0.1,0.4c0,0.6,23,8,24.6,32.3c0,0.3,0.1,0.6,0.3,0.8c0.2,0.3,0.5,0.5,0.9,0.5c0.1,0,0.2,0,0.3,0 C93.5,191.7,119.3,181.6,143.5,163.1z"/> <path fill="#681116" d="M74.3,193.5l-0.4,0c-0.8-0.1-1.6-0.6-2.1-1.3c-0.4-0.5-0.7-1.2-0.7-1.8c-0.9-13-8.4-23.1-22.3-29.9 c-1.4-0.7-2.4-1.2-2.3-2.6c0-0.3,0.1-0.5,0.2-0.7c5.1-19.5,22.3-42,46.1-60.2C116.4,78.8,142.4,68,162.5,68 c11.2,0,19.9,3.5,24.9,10.1c14.3,18.7-4.9,57.5-42.7,86.5c-23.6,18.1-49.7,28.9-69.7,28.9h0L74.3,193.5z M50.7,157 c15,7.4,23.1,18.3,24.3,32.6c19.3,0,44.4-10.5,67.4-28.1c36.2-27.8,55.1-64.2,42-81.1c-4.3-5.6-11.8-8.6-21.8-8.6 c-19.3,0-44.5,10.5-67.4,28.1C72.4,117.3,55.9,138.6,50.7,157L50.7,157z"/> <path fill="#ffffff" d="M124.4,174.2l-46.7-61.6c-2.5,2.7-5,5.5-7.3,8.3l44.1,58.1C117.9,177.6,121.2,176,124.4,174.2z"/> <path fill="#681116" d="M113.9,181.5l-45.9-60.5l1-1.2c2.4-2.9,4.8-5.7,7.4-8.4l1.6-1.6l49.5,65.2l-2,1.1 c-3.3,1.8-6.7,3.4-10.1,4.9L113.9,181.5L113.9,181.5z M72.8,121l42.3,55.7c2.2-1,4.3-2,6.4-3.1l-44-58 C75.9,117.4,74.4,119.2,72.8,121z"/> <path fill="#ffffff" d="M103.9,185.5L62,130.9c-1.7,2.1-3.6,5.1-4.9,8.3l37.3,49.2C97,188,101.4,186.6,103.9,185.5z"/> <path fill="#681116" d="M93.5,190.4l-38.7-51l0.4-1c1.2-2.9,3.1-6.1,5.2-8.7l1.5-1.9l44.9,58.6l-2.3,1c-2.6,1.1-7.2,2.6-10,3 L93.5,190.4L93.5,190.4z M59.2,138.9l35.9,47.4c1.7-0.3,3.8-1,5.6-1.6L62,134.1C60.9,135.6,60,137.2,59.2,138.9z"/> <path fill="#ebf1fa" d="M120,116.3c0,9.6,7.8,17.5,17.4,17.5c9.6,0,17.5-7.8,17.5-17.4c0,0,0,0,0,0c0-9.6-7.8-17.4-17.4-17.4 C127.8,98.9,120,106.7,120,116.3z"/> <path fill="#681116" d="M137.5,135.7c-10.7,0-19.4-8.7-19.4-19.4c0-10.7,8.7-19.4,19.4-19.4s19.4,8.7,19.4,19.4 C156.8,127,148.2,135.7,137.5,135.7z M137.5,100.8c-8.6,0-15.5,7-15.5,15.5c0,8.6,7,15.5,15.5,15.5c8.6,0,15.5-7,15.5-15.5 C153,107.7,146,100.8,137.5,100.8z"/> <path fill="#bcd1e4" d="M142.7,102.6c4.8,2.5,6.8,8.2,6.2,13.9c-1.4,12.5-16.1,13.8-17.6,13.3c2.1,1.1,4.4,1.6,6.7,1.6 c8.2,0,14.8-6.6,14.8-14.8C152.8,110.1,148.6,104.6,142.7,102.6L142.7,102.6z"/> <path fill="#f5c11c" d="M225.2,37.6c0,5.2,4.2,9.4,9.4,9.4c5.2,0,9.4-4.2,9.4-9.4c0,0,0,0,0,0c0-5.2-4.2-9.4-9.4-9.4 S225.3,32.3,225.2,37.6C225.2,37.5,225.2,37.5,225.2,37.6z"/> <path fill="#681116" d="M234.7,48.9c-6.3,0-11.3-5.1-11.3-11.3s5.1-11.3,11.3-11.3S246,31.3,246,37.5S240.9,48.9,234.7,48.9z  M234.7,30.1c-4.1,0-7.5,3.4-7.5,7.5c0,4.1,3.4,7.5,7.5,7.5c4.1,0,7.5-3.4,7.5-7.5C242.1,33.4,238.8,30.1,234.7,30.1z"/> <path fill="#681116" d="M47.8,46.1c0,3.9,3.2,7.1,7.1,7.1c3.9,0,7.1-3.2,7.1-7.1c0-3.9-3.2-7.1-7.1-7.1C51,39,47.8,42.2,47.8,46.1z "/></g>
</svg>